<?xml version="1.0" encoding="UTF-8" standalone="no"?>
<svg
   xmlns:dc="http://purl.org/dc/elements/1.1/"
   xmlns:cc="http://creativecommons.org/ns#"
   xmlns:rdf="http://www.w3.org/1999/02/22-rdf-syntax-ns#"
   xmlns:svg="http://www.w3.org/2000/svg"
   xmlns="http://www.w3.org/2000/svg"
   xmlns:sodipodi="http://sodipodi.sourceforge.net/DTD/sodipodi-0.dtd"
   xmlns:inkscape="http://www.inkscape.org/namespaces/inkscape"
   width="264.58334mm"
   height="153.9722mm"
   viewBox="0 0 750.00214 436.44879"
   version="1.1"
   id="svg5155"
   sodipodi:docname="A.svg"
   inkscape:version="0.92.4 (5da689c313, 2019-01-14)">
  <metadata
     id="metadata5161">
    <rdf:RDF>
      <cc:Work
         rdf:about="">
        <dc:format>image/svg+xml</dc:format>
        <dc:type
           rdf:resource="http://purl.org/dc/dcmitype/StillImage" />
        <dc:title></dc:title>
      </cc:Work>
    </rdf:RDF>
  </metadata>
  <defs
     id="defs5159">
    <clipPath
       clipPathUnits="userSpaceOnUse"
       id="clipPath237">
      <path
         d="m 349.798,30.067 h 92.405 v 53.774 h -92.405 z"
         id="path235"
         inkscape:connector-curvature="0" />
    </clipPath>
  </defs>
  <sodipodi:namedview
     pagecolor="#ffffff"
     bordercolor="#666666"
     borderopacity="1"
     objecttolerance="10"
     gridtolerance="10"
     guidetolerance="10"
     inkscape:pageopacity="0"
     inkscape:pageshadow="2"
     inkscape:window-width="1920"
     inkscape:window-height="1017"
     id="namedview5157"
     showgrid="false"
     fit-margin-top="0"
     fit-margin-left="0"
     fit-margin-right="0"
     fit-margin-bottom="0"
     inkscape:zoom="0.59198503"
     inkscape:cx="749.96485"
     inkscape:cy="179.1601"
     inkscape:window-x="1912"
     inkscape:window-y="-8"
     inkscape:window-maximized="1"
     inkscape:current-layer="svg5155" />
  <g
     id="g231"
     transform="matrix(8.1165368,0,0,-8.1165368,-2839.1483,680.49758)">
    <g
       id="g233"
       clip-path="url(#clipPath237)">
      <g
         id="g239"
         transform="translate(401.494,66.959)">
        <path
           d="m 0,0 -4.625,-0.01 c -0.691,-10e-4 -1.287,-0.488 -1.428,-1.166 l -0.552,-2.701 c -0.1,-0.478 -0.521,-0.819 -1.007,-0.817 -1.171,0.007 -1.817,0.039 -3.364,0.039 -3.507,0 -7.213,2.337 -7.213,6.372 0,3.742 3.301,6.477 7.201,6.477 l 5.278,0.01 c 0.691,0.002 1.287,0.488 1.428,1.166 l 0.563,2.69 c 0.099,0.477 0.518,0.818 1.004,0.817 0.981,-0.003 2.505,-0.01 2.713,-0.027 3.686,0 7.203,-2.52 7.203,-6.462 C 7.201,2.776 4.052,0 0,0 m 0.037,16.853 c -0.328,0.017 -1.792,0.025 -2.839,0.029 -0.701,0.002 -1.305,-0.49 -1.446,-1.178 L -4.806,13.043 C -4.904,12.565 -5.323,12.221 -5.81,12.219 l -5.216,-0.023 c -5.805,0 -11.132,-4.352 -11.132,-10.446 0,-5.476 4.569,-10.403 11.133,-10.403 0.34,-0.017 2.245,-0.013 3.516,-0.017 0.7,-0.002 1.305,0.492 1.446,1.18 l 0.554,2.672 c 0.098,0.481 0.52,0.827 1.009,0.827 l 4.538,-0.013 c 6.411,0 11.132,4.927 11.132,10.456 0,6.031 -5.214,10.401 -11.133,10.401"
           style="fill:#0055ff;fill-opacity:1;fill-rule:nonzero;stroke:none"
           id="path241"
           inkscape:connector-curvature="0" />
      </g>
      <g
         id="g243"
         transform="translate(404.4369,35.5031)">
        <path
           d="m 0,0 c -1.233,0 -2.559,0.975 -2.559,3.116 v 0.096 c 0,2.046 1.358,3.117 2.699,3.117 1.814,0 2.594,-1.604 2.594,-3.094 C 2.734,0.847 1.283,0 0,0 m 0.233,8.161 c -1.162,0 -2.225,-0.578 -2.761,-1.14 L -2.744,7.873 H -4.368 V -5.436 h 1.809 v 4.653 l 0.058,0.027 c 0.536,-0.563 1.567,-1.03 2.594,-1.03 2.431,0 4.683,1.579 4.683,5.045 0,3.161 -2.174,4.902 -4.543,4.902"
           style="fill:#0055ff;fill-opacity:1;fill-rule:nonzero;stroke:none"
           id="path245"
           inkscape:connector-curvature="0" />
      </g>
      <path
         d="m 361.108,33.959 h 1.909 v 14.086 h -1.909 z"
         style="fill:#0055ff;fill-opacity:1;fill-rule:nonzero;stroke:none"
         id="path247"
         inkscape:connector-curvature="0" />
      <g
         id="g249"
         transform="translate(354.7611,35.5717)">
        <path
           d="m 0,0 c -1.89,0 -2.968,1.472 -2.968,3.118 0,1.894 1.229,3.166 2.968,3.166 0.88,0 1.485,-0.356 2.061,-0.707 L 2.953,7.199 C 2.328,7.608 1.219,8.093 0.12,8.093 c -2.973,0 -5.084,-2.092 -5.084,-4.975 0,-2.835 2.159,-4.974 5.084,-4.974 1.246,0 2.141,0.524 2.833,0.919 L 2.061,0.658 C 1.486,0.31 0.693,0 0,0"
           style="fill:#0055ff;fill-opacity:1;fill-rule:nonzero;stroke:none"
           id="path251"
           inkscape:connector-curvature="0" />
      </g>
      <g
         id="g253"
         transform="translate(373.8345,38.6193)">
        <path
           d="m 0,0 c 0,-2.141 -1.326,-3.116 -2.559,-3.116 -1.283,0 -2.734,0.847 -2.734,3.235 0,1.49 0.78,3.094 2.594,3.094 C -1.358,3.213 0,2.142 0,0.096 Z M 0.185,4.757 -0.031,3.905 c -0.536,0.562 -1.599,1.14 -2.762,1.14 -2.368,0 -4.542,-1.866 -4.542,-4.903 0,-3.161 2.174,-5.044 4.542,-5.044 1.163,0 2.226,0.578 2.762,1.141 l 0.216,-0.852 h 1.624 v 9.37 z"
           style="fill:#0055ff;fill-opacity:1;fill-rule:nonzero;stroke:none"
           id="path255"
           inkscape:connector-curvature="0" />
      </g>
      <g
         id="g257"
         transform="translate(373.8345,38.6193)">
        <path
           d="m 0,0 c 0,-2.141 -1.326,-3.116 -2.559,-3.116 -1.283,0 -2.734,0.847 -2.734,3.235 0,1.49 0.78,3.094 2.594,3.094 C -1.358,3.213 0,2.142 0,0.096 Z M 0.185,4.757 -0.031,3.905 c -0.536,0.562 -1.599,1.14 -2.762,1.14 -2.368,0 -4.542,-1.866 -4.542,-4.903 0,-3.161 2.174,-5.044 4.542,-5.044 1.163,0 2.226,0.578 2.762,1.141 l 0.216,-0.852 h 1.624 v 9.37 z"
           style="fill:#0055ff;fill-opacity:1;fill-rule:nonzero;stroke:none"
           id="path259"
           inkscape:connector-curvature="0" />
      </g>
      <g
         id="g261"
         transform="translate(382.4412,37.8553)">
        <path
           d="m 0,0 c 1.324,-0.345 1.878,-0.601 1.878,-1.279 0,-0.52 -0.468,-1.044 -1.513,-1.044 -0.978,0 -1.77,0.352 -2.503,0.763 l -0.877,-1.595 c 0.68,-0.422 2.126,-0.977 3.38,-0.977 2.098,0 3.336,1.435 3.336,2.853 0,2.462 -2.417,2.858 -3.062,3.064 -1.365,0.357 -1.688,0.63 -1.688,1.204 C -1.049,3.569 -0.528,4 0.438,4 1.305,4 1.937,3.734 2.535,3.437 L 3.427,5.06 C 2.553,5.444 1.558,5.809 0.438,5.809 -1.621,5.809 -2.873,4.356 -2.873,2.989 -2.873,0.838 -1.033,0.281 0,0"
           style="fill:#0055ff;fill-opacity:1;fill-rule:nonzero;stroke:none"
           id="path263"
           inkscape:connector-curvature="0" />
      </g>
      <g
         id="g265"
         transform="translate(392.6564,37.8553)">
        <path
           d="m 0,0 c 1.324,-0.345 1.878,-0.601 1.878,-1.279 0,-0.52 -0.468,-1.044 -1.513,-1.044 -0.978,0 -1.77,0.352 -2.503,0.763 l -0.877,-1.595 c 0.68,-0.422 2.126,-0.977 3.38,-0.977 2.098,0 3.336,1.435 3.336,2.853 0,2.462 -2.417,2.858 -3.062,3.064 -1.365,0.357 -1.688,0.63 -1.688,1.204 C -1.049,3.569 -0.528,4 0.438,4 1.305,4 1.937,3.734 2.535,3.437 L 3.427,5.06 C 2.553,5.444 1.558,5.809 0.438,5.809 -1.621,5.809 -2.873,4.356 -2.873,2.989 -2.873,0.838 -1.033,0.281 0,0"
           style="fill:#0055ff;fill-opacity:1;fill-rule:nonzero;stroke:none"
           id="path267"
           inkscape:connector-curvature="0" />
      </g>
      <g
         id="g269"
         transform="translate(419.6792,38.6193)">
        <path
           d="m 0,0 c 0,-2.141 -1.326,-3.116 -2.559,-3.116 -1.283,0 -2.734,0.847 -2.734,3.235 0,1.49 0.78,3.094 2.594,3.094 C -1.358,3.213 0,2.142 0,0.096 Z M 0.185,4.757 -0.031,3.905 c -0.537,0.562 -1.599,1.14 -2.762,1.14 -2.368,0 -4.542,-1.866 -4.542,-4.903 0,-3.161 2.174,-5.044 4.542,-5.044 1.163,0 2.225,0.578 2.762,1.141 l 0.216,-0.852 h 1.624 v 9.37 z"
           style="fill:#0055ff;fill-opacity:1;fill-rule:nonzero;stroke:none"
           id="path271"
           inkscape:connector-curvature="0" />
      </g>
      <g
         id="g273"
         transform="translate(419.6792,38.6193)">
        <path
           d="m 0,0 c 0,-2.141 -1.326,-3.116 -2.559,-3.116 -1.283,0 -2.734,0.847 -2.734,3.235 0,1.49 0.78,3.094 2.594,3.094 C -1.358,3.213 0,2.142 0,0.096 Z M 0.185,4.757 -0.031,3.905 c -0.537,0.562 -1.599,1.14 -2.762,1.14 -2.368,0 -4.542,-1.866 -4.542,-4.903 0,-3.161 2.174,-5.044 4.542,-5.044 1.163,0 2.225,0.578 2.762,1.141 l 0.216,-0.852 h 1.624 v 9.37 z"
           style="fill:#0055ff;fill-opacity:1;fill-rule:nonzero;stroke:none"
           id="path275"
           inkscape:connector-curvature="0" />
      </g>
      <g
         id="g277"
         transform="translate(428.286,37.8553)">
        <path
           d="m 0,0 c 1.323,-0.345 1.878,-0.601 1.878,-1.279 0,-0.52 -0.468,-1.044 -1.513,-1.044 -0.979,0 -1.77,0.352 -2.503,0.763 l -0.877,-1.595 c 0.68,-0.422 2.126,-0.977 3.38,-0.977 2.098,0 3.336,1.435 3.336,2.853 0,2.462 -2.417,2.858 -3.062,3.064 -1.365,0.357 -1.688,0.63 -1.688,1.204 C -1.049,3.569 -0.528,4 0.438,4 1.305,4 1.937,3.734 2.535,3.437 L 3.427,5.06 C 2.553,5.444 1.558,5.809 0.438,5.809 -1.622,5.809 -2.873,4.356 -2.873,2.989 -2.873,0.838 -1.033,0.281 0,0"
           style="fill:#0055ff;fill-opacity:1;fill-rule:nonzero;stroke:none"
           id="path279"
           inkscape:connector-curvature="0" />
      </g>
      <g
         id="g281"
         transform="translate(438.5012,37.8553)">
        <path
           d="m 0,0 c 1.323,-0.345 1.878,-0.601 1.878,-1.279 0,-0.52 -0.468,-1.044 -1.513,-1.044 -0.979,0 -1.77,0.352 -2.503,0.763 l -0.877,-1.595 c 0.68,-0.422 2.126,-0.977 3.38,-0.977 2.098,0 3.336,1.435 3.336,2.853 0,2.462 -2.417,2.858 -3.062,3.064 -1.365,0.357 -1.688,0.63 -1.688,1.204 C -1.049,3.569 -0.528,4 0.438,4 1.305,4 1.937,3.734 2.535,3.437 L 3.427,5.06 C 2.553,5.444 1.558,5.809 0.438,5.809 -1.622,5.809 -2.873,4.356 -2.873,2.989 -2.873,0.838 -1.033,0.281 0,0"
           style="fill:#0055ff;fill-opacity:1;fill-rule:nonzero;stroke:none"
           id="path283"
           inkscape:connector-curvature="0" />
      </g>
    </g>
  </g>
</svg>
